<svg xmlns="http://www.w3.org/2000/svg" viewBox="0 0 512 512" role="img" aria-labelledby="title desc">
  <title id="title">Workspace-Centered Docs</title>
  <desc id="desc">An open book representing centralized documentation for workspace packages.</desc>
  <defs>
    <linearGradient id="bg" x1="80" y1="60" x2="432" y2="452" gradientUnits="userSpaceOnUse">
      <stop offset="0" stop-color="#fff4ea" />
      <stop offset="1" stop-color="#ffe2cc" />
    </linearGradient>
  </defs>
  <rect x="48" y="48" width="416" height="416" rx="40" fill="url(#bg)" />
  <path d="M128 128h120c22.091 0 40 17.909 40 40v196c0-22.091-17.909-40-40-40H128Z" fill="#fff8f1" stroke="#c25800" stroke-width="6" stroke-linejoin="round" />
  <path d="M384 128H264c-22.091 0-40 17.909-40 40v196c0-22.091 17.909-40 40-40h120Z" fill="#fffaf5" stroke="#c25800" stroke-width="6" stroke-linejoin="round" />
  <line x1="160" y1="172" x2="228" y2="172" stroke="#e06800" stroke-width="8" stroke-linecap="round" />
  <line x1="160" y1="208" x2="228" y2="208" stroke="#e06800" stroke-width="8" stroke-linecap="round" />
  <line x1="284" y1="172" x2="352" y2="172" stroke="#e06800" stroke-width="8" stroke-linecap="round" />
  <line x1="284" y1="208" x2="352" y2="208" stroke="#e06800" stroke-width="8" stroke-linecap="round" />
  <line x1="284" y1="244" x2="336" y2="244" stroke="#e06800" stroke-width="8" stroke-linecap="round" />
  <line x1="256" y1="168" x2="256" y2="368" stroke="#c25800" stroke-width="6" stroke-linecap="round" />
</svg>
